<?xml version="1.0" encoding="UTF-8"?>
<svg version="1.1" baseProfile="tiny" xmlns="http://www.w3.org/2000/svg" width="174" height="174">
<rect shape-rendering="optimizeSpeed"  x="0" y="0" width="174" height="174" fill="white" />
<rect shape-rendering="optimizeSpeed"  x="0" y="0" width="6" height="6" fill="black" />
<rect shape-rendering="optimizeSpeed"  x="6" y="0" width="6" height="6" fill="black" />
<rect shape-rendering="optimizeSpeed"  x="12" y="0" width="6" height="6" fill="black" />
<rect shape-rendering="optimizeSpeed"  x="18" y="0" width="6" height="6" fill="black" />
<rect shape-rendering="optimizeSpeed"  x="24" y="0" width="6" height="6" fill="black" />
<rect shape-rendering="optimizeSpeed"  x="30" y="0" width="6" height="6" fill="black" />
<rect shape-rendering="optimizeSpeed"  x="36" y="0" width="6" height="6" fill="black" />
<rect shape-rendering="optimizeSpeed"  x="60" y="0" width="6" height="6" fill="black" />
<rect shape-rendering="optimizeSpeed"  x="72" y="0" width="6" height="6" fill="black" />
<rect shape-rendering="optimizeSpeed"  x="84" y="0" width="6" height="6" fill="black" />
<rect shape-rendering="optimizeSpeed"  x="108" y="0" width="6" height="6" fill="black" />
<rect shape-rendering="optimizeSpeed"  x="114" y="0" width="6" height="6" fill="black" />
<rect shape-rendering="optimizeSpeed"  x="120" y="0" width="6" height="6" fill="black" />
<rect shape-rendering="optimizeSpeed"  x="132" y="0" width="6" height="6" fill="black" />
<rect shape-rendering="optimizeSpeed"  x="138" y="0" width="6" height="6" fill="black" />
<rect shape-rendering="optimizeSpeed"  x="144" y="0" width="6" height="6" fill="black" />
<rect shape-rendering="optimizeSpeed"  x="150" y="0" width="6" height="6" fill="black" />
<rect shape-rendering="optimizeSpeed"  x="156" y="0" width="6" height="6" fill="black" />
<rect shape-rendering="optimizeSpeed"  x="162" y="0" width="6" height="6" fill="black" />
<rect shape-rendering="optimizeSpeed"  x="168" y="0" width="6" height="6" fill="black" />
<rect shape-rendering="optimizeSpeed"  x="0" y="6" width="6" height="6" fill="black" />
<rect shape-rendering="optimizeSpeed"  x="36" y="6" width="6" height="6" fill="black" />
<rect shape-rendering="optimizeSpeed"  x="48" y="6" width="6" height="6" fill="black" />
<rect shape-rendering="optimizeSpeed"  x="60" y="6" width="6" height="6" fill="black" />
<rect shape-rendering="optimizeSpeed"  x="78" y="6" width="6" height="6" fill="black" />
<rect shape-rendering="optimizeSpeed"  x="90" y="6" width="6" height="6" fill="black" />
<rect shape-rendering="optimizeSpeed"  x="96" y="6" width="6" height="6" fill="black" />
<rect shape-rendering="optimizeSpeed"  x="108" y="6" width="6" height="6" fill="black" />
<rect shape-rendering="optimizeSpeed"  x="120" y="6" width="6" height="6" fill="black" />
<rect shape-rendering="optimizeSpeed"  x="132" y="6" width="6" height="6" fill="black" />
<rect shape-rendering="optimizeSpeed"  x="168" y="6" width="6" height="6" fill="black" />
<rect shape-rendering="optimizeSpeed"  x="0" y="12" width="6" height="6" fill="black" />
<rect shape-rendering="optimizeSpeed"  x="12" y="12" width="6" height="6" fill="black" />
<rect shape-rendering="optimizeSpeed"  x="18" y="12" width="6" height="6" fill="black" />
<rect shape-rendering="optimizeSpeed"  x="24" y="12" width="6" height="6" fill="black" />
<rect shape-rendering="optimizeSpeed"  x="36" y="12" width="6" height="6" fill="black" />
<rect shape-rendering="optimizeSpeed"  x="72" y="12" width="6" height="6" fill="black" />
<rect shape-rendering="optimizeSpeed"  x="96" y="12" width="6" height="6" fill="black" />
<rect shape-rendering="optimizeSpeed"  x="114" y="12" width="6" height="6" fill="black" />
<rect shape-rendering="optimizeSpeed"  x="120" y="12" width="6" height="6" fill="black" />
<rect shape-rendering="optimizeSpeed"  x="132" y="12" width="6" height="6" fill="black" />
<rect shape-rendering="optimizeSpeed"  x="144" y="12" width="6" height="6" fill="black" />
<rect shape-rendering="optimizeSpeed"  x="150" y="12" width="6" height="6" fill="black" />
<rect shape-rendering="optimizeSpeed"  x="156" y="12" width="6" height="6" fill="black" />
<rect shape-rendering="optimizeSpeed"  x="168" y="12" width="6" height="6" fill="black" />
<rect shape-rendering="optimizeSpeed"  x="0" y="18" width="6" height="6" fill="black" />
<rect shape-rendering="optimizeSpeed"  x="12" y="18" width="6" height="6" fill="black" />
<rect shape-rendering="optimizeSpeed"  x="18" y="18" width="6" height="6" fill="black" />
<rect shape-rendering="optimizeSpeed"  x="24" y="18" width="6" height="6" fill="black" />
<rect shape-rendering="optimizeSpeed"  x="36" y="18" width="6" height="6" fill="black" />
<rect shape-rendering="optimizeSpeed"  x="48" y="18" width="6" height="6" fill="black" />
<rect shape-rendering="optimizeSpeed"  x="54" y="18" width="6" height="6" fill="black" />
<rect shape-rendering="optimizeSpeed"  x="60" y="18" width="6" height="6" fill="black" />
<rect shape-rendering="optimizeSpeed"  x="72" y="18" width="6" height="6" fill="black" />
<rect shape-rendering="optimizeSpeed"  x="78" y="18" width="6" height="6" fill="black" />
<rect shape-rendering="optimizeSpeed"  x="84" y="18" width="6" height="6" fill="black" />
<rect shape-rendering="optimizeSpeed"  x="90" y="18" width="6" height="6" fill="black" />
<rect shape-rendering="optimizeSpeed"  x="96" y="18" width="6" height="6" fill="black" />
<rect shape-rendering="optimizeSpeed"  x="120" y="18" width="6" height="6" fill="black" />
<rect shape-rendering="optimizeSpeed"  x="132" y="18" width="6" height="6" fill="black" />
<rect shape-rendering="optimizeSpeed"  x="144" y="18" width="6" height="6" fill="black" />
<rect shape-rendering="optimizeSpeed"  x="150" y="18" width="6" height="6" fill="black" />
<rect shape-rendering="optimizeSpeed"  x="156" y="18" width="6" height="6" fill="black" />
<rect shape-rendering="optimizeSpeed"  x="168" y="18" width="6" height="6" fill="black" />
<rect shape-rendering="optimizeSpeed"  x="0" y="24" width="6" height="6" fill="black" />
<rect shape-rendering="optimizeSpeed"  x="12" y="24" width="6" height="6" fill="black" />
<rect shape-rendering="optimizeSpeed"  x="18" y="24" width="6" height="6" fill="black" />
<rect shape-rendering="optimizeSpeed"  x="24" y="24" width="6" height="6" fill="black" />
<rect shape-rendering="optimizeSpeed"  x="36" y="24" width="6" height="6" fill="black" />
<rect shape-rendering="optimizeSpeed"  x="54" y="24" width="6" height="6" fill="black" />
<rect shape-rendering="optimizeSpeed"  x="108" y="24" width="6" height="6" fill="black" />
<rect shape-rendering="optimizeSpeed"  x="114" y="24" width="6" height="6" fill="black" />
<rect shape-rendering="optimizeSpeed"  x="132" y="24" width="6" height="6" fill="black" />
<rect shape-rendering="optimizeSpeed"  x="144" y="24" width="6" height="6" fill="black" />
<rect shape-rendering="optimizeSpeed"  x="150" y="24" width="6" height="6" fill="black" />
<rect shape-rendering="optimizeSpeed"  x="156" y="24" width="6" height="6" fill="black" />
<rect shape-rendering="optimizeSpeed"  x="168" y="24" width="6" height="6" fill="black" />
<rect shape-rendering="optimizeSpeed"  x="0" y="30" width="6" height="6" fill="black" />
<rect shape-rendering="optimizeSpeed"  x="36" y="30" width="6" height="6" fill="black" />
<rect shape-rendering="optimizeSpeed"  x="48" y="30" width="6" height="6" fill="black" />
<rect shape-rendering="optimizeSpeed"  x="54" y="30" width="6" height="6" fill="black" />
<rect shape-rendering="optimizeSpeed"  x="66" y="30" width="6" height="6" fill="black" />
<rect shape-rendering="optimizeSpeed"  x="72" y="30" width="6" height="6" fill="black" />
<rect shape-rendering="optimizeSpeed"  x="90" y="30" width="6" height="6" fill="black" />
<rect shape-rendering="optimizeSpeed"  x="120" y="30" width="6" height="6" fill="black" />
<rect shape-rendering="optimizeSpeed"  x="132" y="30" width="6" height="6" fill="black" />
<rect shape-rendering="optimizeSpeed"  x="168" y="30" width="6" height="6" fill="black" />
<rect shape-rendering="optimizeSpeed"  x="0" y="36" width="6" height="6" fill="black" />
<rect shape-rendering="optimizeSpeed"  x="6" y="36" width="6" height="6" fill="black" />
<rect shape-rendering="optimizeSpeed"  x="12" y="36" width="6" height="6" fill="black" />
<rect shape-rendering="optimizeSpeed"  x="18" y="36" width="6" height="6" fill="black" />
<rect shape-rendering="optimizeSpeed"  x="24" y="36" width="6" height="6" fill="black" />
<rect shape-rendering="optimizeSpeed"  x="30" y="36" width="6" height="6" fill="black" />
<rect shape-rendering="optimizeSpeed"  x="36" y="36" width="6" height="6" fill="black" />
<rect shape-rendering="optimizeSpeed"  x="48" y="36" width="6" height="6" fill="black" />
<rect shape-rendering="optimizeSpeed"  x="60" y="36" width="6" height="6" fill="black" />
<rect shape-rendering="optimizeSpeed"  x="72" y="36" width="6" height="6" fill="black" />
<rect shape-rendering="optimizeSpeed"  x="84" y="36" width="6" height="6" fill="black" />
<rect shape-rendering="optimizeSpeed"  x="96" y="36" width="6" height="6" fill="black" />
<rect shape-rendering="optimizeSpeed"  x="108" y="36" width="6" height="6" fill="black" />
<rect shape-rendering="optimizeSpeed"  x="120" y="36" width="6" height="6" fill="black" />
<rect shape-rendering="optimizeSpeed"  x="132" y="36" width="6" height="6" fill="black" />
<rect shape-rendering="optimizeSpeed"  x="138" y="36" width="6" height="6" fill="black" />
<rect shape-rendering="optimizeSpeed"  x="144" y="36" width="6" height="6" fill="black" />
<rect shape-rendering="optimizeSpeed"  x="150" y="36" width="6" height="6" fill="black" />
<rect shape-rendering="optimizeSpeed"  x="156" y="36" width="6" height="6" fill="black" />
<rect shape-rendering="optimizeSpeed"  x="162" y="36" width="6" height="6" fill="black" />
<rect shape-rendering="optimizeSpeed"  x="168" y="36" width="6" height="6" fill="black" />
<rect shape-rendering="optimizeSpeed"  x="54" y="42" width="6" height="6" fill="black" />
<rect shape-rendering="optimizeSpeed"  x="60" y="42" width="6" height="6" fill="black" />
<rect shape-rendering="optimizeSpeed"  x="66" y="42" width="6" height="6" fill="black" />
<rect shape-rendering="optimizeSpeed"  x="84" y="42" width="6" height="6" fill="black" />
<rect shape-rendering="optimizeSpeed"  x="0" y="48" width="6" height="6" fill="black" />
<rect shape-rendering="optimizeSpeed"  x="6" y="48" width="6" height="6" fill="black" />
<rect shape-rendering="optimizeSpeed"  x="12" y="48" width="6" height="6" fill="black" />
<rect shape-rendering="optimizeSpeed"  x="18" y="48" width="6" height="6" fill="black" />
<rect shape-rendering="optimizeSpeed"  x="24" y="48" width="6" height="6" fill="black" />
<rect shape-rendering="optimizeSpeed"  x="36" y="48" width="6" height="6" fill="black" />
<rect shape-rendering="optimizeSpeed"  x="42" y="48" width="6" height="6" fill="black" />
<rect shape-rendering="optimizeSpeed"  x="48" y="48" width="6" height="6" fill="black" />
<rect shape-rendering="optimizeSpeed"  x="54" y="48" width="6" height="6" fill="black" />
<rect shape-rendering="optimizeSpeed"  x="66" y="48" width="6" height="6" fill="black" />
<rect shape-rendering="optimizeSpeed"  x="78" y="48" width="6" height="6" fill="black" />
<rect shape-rendering="optimizeSpeed"  x="90" y="48" width="6" height="6" fill="black" />
<rect shape-rendering="optimizeSpeed"  x="102" y="48" width="6" height="6" fill="black" />
<rect shape-rendering="optimizeSpeed"  x="108" y="48" width="6" height="6" fill="black" />
<rect shape-rendering="optimizeSpeed"  x="126" y="48" width="6" height="6" fill="black" />
<rect shape-rendering="optimizeSpeed"  x="138" y="48" width="6" height="6" fill="black" />
<rect shape-rendering="optimizeSpeed"  x="150" y="48" width="6" height="6" fill="black" />
<rect shape-rendering="optimizeSpeed"  x="162" y="48" width="6" height="6" fill="black" />
<rect shape-rendering="optimizeSpeed"  x="12" y="54" width="6" height="6" fill="black" />
<rect shape-rendering="optimizeSpeed"  x="18" y="54" width="6" height="6" fill="black" />
<rect shape-rendering="optimizeSpeed"  x="60" y="54" width="6" height="6" fill="black" />
<rect shape-rendering="optimizeSpeed"  x="72" y="54" width="6" height="6" fill="black" />
<rect shape-rendering="optimizeSpeed"  x="78" y="54" width="6" height="6" fill="black" />
<rect shape-rendering="optimizeSpeed"  x="84" y="54" width="6" height="6" fill="black" />
<rect shape-rendering="optimizeSpeed"  x="96" y="54" width="6" height="6" fill="black" />
<rect shape-rendering="optimizeSpeed"  x="120" y="54" width="6" height="6" fill="black" />
<rect shape-rendering="optimizeSpeed"  x="132" y="54" width="6" height="6" fill="black" />
<rect shape-rendering="optimizeSpeed"  x="144" y="54" width="6" height="6" fill="black" />
<rect shape-rendering="optimizeSpeed"  x="162" y="54" width="6" height="6" fill="black" />
<rect shape-rendering="optimizeSpeed"  x="168" y="54" width="6" height="6" fill="black" />
<rect shape-rendering="optimizeSpeed"  x="0" y="60" width="6" height="6" fill="black" />
<rect shape-rendering="optimizeSpeed"  x="12" y="60" width="6" height="6" fill="black" />
<rect shape-rendering="optimizeSpeed"  x="18" y="60" width="6" height="6" fill="black" />
<rect shape-rendering="optimizeSpeed"  x="30" y="60" width="6" height="6" fill="black" />
<rect shape-rendering="optimizeSpeed"  x="36" y="60" width="6" height="6" fill="black" />
<rect shape-rendering="optimizeSpeed"  x="60" y="60" width="6" height="6" fill="black" />
<rect shape-rendering="optimizeSpeed"  x="90" y="60" width="6" height="6" fill="black" />
<rect shape-rendering="optimizeSpeed"  x="96" y="60" width="6" height="6" fill="black" />
<rect shape-rendering="optimizeSpeed"  x="102" y="60" width="6" height="6" fill="black" />
<rect shape-rendering="optimizeSpeed"  x="108" y="60" width="6" height="6" fill="black" />
<rect shape-rendering="optimizeSpeed"  x="120" y="60" width="6" height="6" fill="black" />
<rect shape-rendering="optimizeSpeed"  x="138" y="60" width="6" height="6" fill="black" />
<rect shape-rendering="optimizeSpeed"  x="156" y="60" width="6" height="6" fill="black" />
<rect shape-rendering="optimizeSpeed"  x="6" y="66" width="6" height="6" fill="black" />
<rect shape-rendering="optimizeSpeed"  x="18" y="66" width="6" height="6" fill="black" />
<rect shape-rendering="optimizeSpeed"  x="30" y="66" width="6" height="6" fill="black" />
<rect shape-rendering="optimizeSpeed"  x="42" y="66" width="6" height="6" fill="black" />
<rect shape-rendering="optimizeSpeed"  x="48" y="66" width="6" height="6" fill="black" />
<rect shape-rendering="optimizeSpeed"  x="72" y="66" width="6" height="6" fill="black" />
<rect shape-rendering="optimizeSpeed"  x="84" y="66" width="6" height="6" fill="black" />
<rect shape-rendering="optimizeSpeed"  x="90" y="66" width="6" height="6" fill="black" />
<rect shape-rendering="optimizeSpeed"  x="108" y="66" width="6" height="6" fill="black" />
<rect shape-rendering="optimizeSpeed"  x="120" y="66" width="6" height="6" fill="black" />
<rect shape-rendering="optimizeSpeed"  x="132" y="66" width="6" height="6" fill="black" />
<rect shape-rendering="optimizeSpeed"  x="144" y="66" width="6" height="6" fill="black" />
<rect shape-rendering="optimizeSpeed"  x="150" y="66" width="6" height="6" fill="black" />
<rect shape-rendering="optimizeSpeed"  x="162" y="66" width="6" height="6" fill="black" />
<rect shape-rendering="optimizeSpeed"  x="168" y="66" width="6" height="6" fill="black" />
<rect shape-rendering="optimizeSpeed"  x="0" y="72" width="6" height="6" fill="black" />
<rect shape-rendering="optimizeSpeed"  x="18" y="72" width="6" height="6" fill="black" />
<rect shape-rendering="optimizeSpeed"  x="24" y="72" width="6" height="6" fill="black" />
<rect shape-rendering="optimizeSpeed"  x="30" y="72" width="6" height="6" fill="black" />
<rect shape-rendering="optimizeSpeed"  x="36" y="72" width="6" height="6" fill="black" />
<rect shape-rendering="optimizeSpeed"  x="48" y="72" width="6" height="6" fill="black" />
<rect shape-rendering="optimizeSpeed"  x="54" y="72" width="6" height="6" fill="black" />
<rect shape-rendering="optimizeSpeed"  x="60" y="72" width="6" height="6" fill="black" />
<rect shape-rendering="optimizeSpeed"  x="72" y="72" width="6" height="6" fill="black" />
<rect shape-rendering="optimizeSpeed"  x="78" y="72" width="6" height="6" fill="black" />
<rect shape-rendering="optimizeSpeed"  x="90" y="72" width="6" height="6" fill="black" />
<rect shape-rendering="optimizeSpeed"  x="96" y="72" width="6" height="6" fill="black" />
<rect shape-rendering="optimizeSpeed"  x="102" y="72" width="6" height="6" fill="black" />
<rect shape-rendering="optimizeSpeed"  x="108" y="72" width="6" height="6" fill="black" />
<rect shape-rendering="optimizeSpeed"  x="0" y="78" width="6" height="6" fill="black" />
<rect shape-rendering="optimizeSpeed"  x="6" y="78" width="6" height="6" fill="black" />
<rect shape-rendering="optimizeSpeed"  x="54" y="78" width="6" height="6" fill="black" />
<rect shape-rendering="optimizeSpeed"  x="78" y="78" width="6" height="6" fill="black" />
<rect shape-rendering="optimizeSpeed"  x="84" y="78" width="6" height="6" fill="black" />
<rect shape-rendering="optimizeSpeed"  x="102" y="78" width="6" height="6" fill="black" />
<rect shape-rendering="optimizeSpeed"  x="114" y="78" width="6" height="6" fill="black" />
<rect shape-rendering="optimizeSpeed"  x="120" y="78" width="6" height="6" fill="black" />
<rect shape-rendering="optimizeSpeed"  x="126" y="78" width="6" height="6" fill="black" />
<rect shape-rendering="optimizeSpeed"  x="138" y="78" width="6" height="6" fill="black" />
<rect shape-rendering="optimizeSpeed"  x="144" y="78" width="6" height="6" fill="black" />
<rect shape-rendering="optimizeSpeed"  x="150" y="78" width="6" height="6" fill="black" />
<rect shape-rendering="optimizeSpeed"  x="162" y="78" width="6" height="6" fill="black" />
<rect shape-rendering="optimizeSpeed"  x="168" y="78" width="6" height="6" fill="black" />
<rect shape-rendering="optimizeSpeed"  x="0" y="84" width="6" height="6" fill="black" />
<rect shape-rendering="optimizeSpeed"  x="6" y="84" width="6" height="6" fill="black" />
<rect shape-rendering="optimizeSpeed"  x="36" y="84" width="6" height="6" fill="black" />
<rect shape-rendering="optimizeSpeed"  x="42" y="84" width="6" height="6" fill="black" />
<rect shape-rendering="optimizeSpeed"  x="48" y="84" width="6" height="6" fill="black" />
<rect shape-rendering="optimizeSpeed"  x="54" y="84" width="6" height="6" fill="black" />
<rect shape-rendering="optimizeSpeed"  x="66" y="84" width="6" height="6" fill="black" />
<rect shape-rendering="optimizeSpeed"  x="72" y="84" width="6" height="6" fill="black" />
<rect shape-rendering="optimizeSpeed"  x="90" y="84" width="6" height="6" fill="black" />
<rect shape-rendering="optimizeSpeed"  x="96" y="84" width="6" height="6" fill="black" />
<rect shape-rendering="optimizeSpeed"  x="108" y="84" width="6" height="6" fill="black" />
<rect shape-rendering="optimizeSpeed"  x="144" y="84" width="6" height="6" fill="black" />
<rect shape-rendering="optimizeSpeed"  x="156" y="84" width="6" height="6" fill="black" />
<rect shape-rendering="optimizeSpeed"  x="24" y="90" width="6" height="6" fill="black" />
<rect shape-rendering="optimizeSpeed"  x="48" y="90" width="6" height="6" fill="black" />
<rect shape-rendering="optimizeSpeed"  x="54" y="90" width="6" height="6" fill="black" />
<rect shape-rendering="optimizeSpeed"  x="60" y="90" width="6" height="6" fill="black" />
<rect shape-rendering="optimizeSpeed"  x="66" y="90" width="6" height="6" fill="black" />
<rect shape-rendering="optimizeSpeed"  x="84" y="90" width="6" height="6" fill="black" />
<rect shape-rendering="optimizeSpeed"  x="90" y="90" width="6" height="6" fill="black" />
<rect shape-rendering="optimizeSpeed"  x="108" y="90" width="6" height="6" fill="black" />
<rect shape-rendering="optimizeSpeed"  x="114" y="90" width="6" height="6" fill="black" />
<rect shape-rendering="optimizeSpeed"  x="120" y="90" width="6" height="6" fill="black" />
<rect shape-rendering="optimizeSpeed"  x="144" y="90" width="6" height="6" fill="black" />
<rect shape-rendering="optimizeSpeed"  x="162" y="90" width="6" height="6" fill="black" />
<rect shape-rendering="optimizeSpeed"  x="0" y="96" width="6" height="6" fill="black" />
<rect shape-rendering="optimizeSpeed"  x="36" y="96" width="6" height="6" fill="black" />
<rect shape-rendering="optimizeSpeed"  x="42" y="96" width="6" height="6" fill="black" />
<rect shape-rendering="optimizeSpeed"  x="48" y="96" width="6" height="6" fill="black" />
<rect shape-rendering="optimizeSpeed"  x="54" y="96" width="6" height="6" fill="black" />
<rect shape-rendering="optimizeSpeed"  x="66" y="96" width="6" height="6" fill="black" />
<rect shape-rendering="optimizeSpeed"  x="84" y="96" width="6" height="6" fill="black" />
<rect shape-rendering="optimizeSpeed"  x="96" y="96" width="6" height="6" fill="black" />
<rect shape-rendering="optimizeSpeed"  x="102" y="96" width="6" height="6" fill="black" />
<rect shape-rendering="optimizeSpeed"  x="108" y="96" width="6" height="6" fill="black" />
<rect shape-rendering="optimizeSpeed"  x="120" y="96" width="6" height="6" fill="black" />
<rect shape-rendering="optimizeSpeed"  x="126" y="96" width="6" height="6" fill="black" />
<rect shape-rendering="optimizeSpeed"  x="138" y="96" width="6" height="6" fill="black" />
<rect shape-rendering="optimizeSpeed"  x="150" y="96" width="6" height="6" fill="black" />
<rect shape-rendering="optimizeSpeed"  x="156" y="96" width="6" height="6" fill="black" />
<rect shape-rendering="optimizeSpeed"  x="162" y="96" width="6" height="6" fill="black" />
<rect shape-rendering="optimizeSpeed"  x="168" y="96" width="6" height="6" fill="black" />
<rect shape-rendering="optimizeSpeed"  x="0" y="102" width="6" height="6" fill="black" />
<rect shape-rendering="optimizeSpeed"  x="6" y="102" width="6" height="6" fill="black" />
<rect shape-rendering="optimizeSpeed"  x="24" y="102" width="6" height="6" fill="black" />
<rect shape-rendering="optimizeSpeed"  x="30" y="102" width="6" height="6" fill="black" />
<rect shape-rendering="optimizeSpeed"  x="42" y="102" width="6" height="6" fill="black" />
<rect shape-rendering="optimizeSpeed"  x="54" y="102" width="6" height="6" fill="black" />
<rect shape-rendering="optimizeSpeed"  x="72" y="102" width="6" height="6" fill="black" />
<rect shape-rendering="optimizeSpeed"  x="114" y="102" width="6" height="6" fill="black" />
<rect shape-rendering="optimizeSpeed"  x="132" y="102" width="6" height="6" fill="black" />
<rect shape-rendering="optimizeSpeed"  x="144" y="102" width="6" height="6" fill="black" />
<rect shape-rendering="optimizeSpeed"  x="156" y="102" width="6" height="6" fill="black" />
<rect shape-rendering="optimizeSpeed"  x="168" y="102" width="6" height="6" fill="black" />
<rect shape-rendering="optimizeSpeed"  x="0" y="108" width="6" height="6" fill="black" />
<rect shape-rendering="optimizeSpeed"  x="12" y="108" width="6" height="6" fill="black" />
<rect shape-rendering="optimizeSpeed"  x="18" y="108" width="6" height="6" fill="black" />
<rect shape-rendering="optimizeSpeed"  x="30" y="108" width="6" height="6" fill="black" />
<rect shape-rendering="optimizeSpeed"  x="36" y="108" width="6" height="6" fill="black" />
<rect shape-rendering="optimizeSpeed"  x="54" y="108" width="6" height="6" fill="black" />
<rect shape-rendering="optimizeSpeed"  x="60" y="108" width="6" height="6" fill="black" />
<rect shape-rendering="optimizeSpeed"  x="78" y="108" width="6" height="6" fill="black" />
<rect shape-rendering="optimizeSpeed"  x="84" y="108" width="6" height="6" fill="black" />
<rect shape-rendering="optimizeSpeed"  x="90" y="108" width="6" height="6" fill="black" />
<rect shape-rendering="optimizeSpeed"  x="96" y="108" width="6" height="6" fill="black" />
<rect shape-rendering="optimizeSpeed"  x="108" y="108" width="6" height="6" fill="black" />
<rect shape-rendering="optimizeSpeed"  x="126" y="108" width="6" height="6" fill="black" />
<rect shape-rendering="optimizeSpeed"  x="138" y="108" width="6" height="6" fill="black" />
<rect shape-rendering="optimizeSpeed"  x="144" y="108" width="6" height="6" fill="black" />
<rect shape-rendering="optimizeSpeed"  x="150" y="108" width="6" height="6" fill="black" />
<rect shape-rendering="optimizeSpeed"  x="0" y="114" width="6" height="6" fill="black" />
<rect shape-rendering="optimizeSpeed"  x="12" y="114" width="6" height="6" fill="black" />
<rect shape-rendering="optimizeSpeed"  x="42" y="114" width="6" height="6" fill="black" />
<rect shape-rendering="optimizeSpeed"  x="48" y="114" width="6" height="6" fill="black" />
<rect shape-rendering="optimizeSpeed"  x="60" y="114" width="6" height="6" fill="black" />
<rect shape-rendering="optimizeSpeed"  x="72" y="114" width="6" height="6" fill="black" />
<rect shape-rendering="optimizeSpeed"  x="90" y="114" width="6" height="6" fill="black" />
<rect shape-rendering="optimizeSpeed"  x="96" y="114" width="6" height="6" fill="black" />
<rect shape-rendering="optimizeSpeed"  x="114" y="114" width="6" height="6" fill="black" />
<rect shape-rendering="optimizeSpeed"  x="120" y="114" width="6" height="6" fill="black" />
<rect shape-rendering="optimizeSpeed"  x="132" y="114" width="6" height="6" fill="black" />
<rect shape-rendering="optimizeSpeed"  x="150" y="114" width="6" height="6" fill="black" />
<rect shape-rendering="optimizeSpeed"  x="162" y="114" width="6" height="6" fill="black" />
<rect shape-rendering="optimizeSpeed"  x="0" y="120" width="6" height="6" fill="black" />
<rect shape-rendering="optimizeSpeed"  x="30" y="120" width="6" height="6" fill="black" />
<rect shape-rendering="optimizeSpeed"  x="36" y="120" width="6" height="6" fill="black" />
<rect shape-rendering="optimizeSpeed"  x="42" y="120" width="6" height="6" fill="black" />
<rect shape-rendering="optimizeSpeed"  x="54" y="120" width="6" height="6" fill="black" />
<rect shape-rendering="optimizeSpeed"  x="72" y="120" width="6" height="6" fill="black" />
<rect shape-rendering="optimizeSpeed"  x="78" y="120" width="6" height="6" fill="black" />
<rect shape-rendering="optimizeSpeed"  x="90" y="120" width="6" height="6" fill="black" />
<rect shape-rendering="optimizeSpeed"  x="120" y="120" width="6" height="6" fill="black" />
<rect shape-rendering="optimizeSpeed"  x="126" y="120" width="6" height="6" fill="black" />
<rect shape-rendering="optimizeSpeed"  x="132" y="120" width="6" height="6" fill="black" />
<rect shape-rendering="optimizeSpeed"  x="138" y="120" width="6" height="6" fill="black" />
<rect shape-rendering="optimizeSpeed"  x="144" y="120" width="6" height="6" fill="black" />
<rect shape-rendering="optimizeSpeed"  x="162" y="120" width="6" height="6" fill="black" />
<rect shape-rendering="optimizeSpeed"  x="48" y="126" width="6" height="6" fill="black" />
<rect shape-rendering="optimizeSpeed"  x="54" y="126" width="6" height="6" fill="black" />
<rect shape-rendering="optimizeSpeed"  x="60" y="126" width="6" height="6" fill="black" />
<rect shape-rendering="optimizeSpeed"  x="84" y="126" width="6" height="6" fill="black" />
<rect shape-rendering="optimizeSpeed"  x="90" y="126" width="6" height="6" fill="black" />
<rect shape-rendering="optimizeSpeed"  x="96" y="126" width="6" height="6" fill="black" />
<rect shape-rendering="optimizeSpeed"  x="108" y="126" width="6" height="6" fill="black" />
<rect shape-rendering="optimizeSpeed"  x="120" y="126" width="6" height="6" fill="black" />
<rect shape-rendering="optimizeSpeed"  x="144" y="126" width="6" height="6" fill="black" />
<rect shape-rendering="optimizeSpeed"  x="168" y="126" width="6" height="6" fill="black" />
<rect shape-rendering="optimizeSpeed"  x="0" y="132" width="6" height="6" fill="black" />
<rect shape-rendering="optimizeSpeed"  x="6" y="132" width="6" height="6" fill="black" />
<rect shape-rendering="optimizeSpeed"  x="12" y="132" width="6" height="6" fill="black" />
<rect shape-rendering="optimizeSpeed"  x="18" y="132" width="6" height="6" fill="black" />
<rect shape-rendering="optimizeSpeed"  x="24" y="132" width="6" height="6" fill="black" />
<rect shape-rendering="optimizeSpeed"  x="30" y="132" width="6" height="6" fill="black" />
<rect shape-rendering="optimizeSpeed"  x="36" y="132" width="6" height="6" fill="black" />
<rect shape-rendering="optimizeSpeed"  x="48" y="132" width="6" height="6" fill="black" />
<rect shape-rendering="optimizeSpeed"  x="54" y="132" width="6" height="6" fill="black" />
<rect shape-rendering="optimizeSpeed"  x="66" y="132" width="6" height="6" fill="black" />
<rect shape-rendering="optimizeSpeed"  x="72" y="132" width="6" height="6" fill="black" />
<rect shape-rendering="optimizeSpeed"  x="84" y="132" width="6" height="6" fill="black" />
<rect shape-rendering="optimizeSpeed"  x="90" y="132" width="6" height="6" fill="black" />
<rect shape-rendering="optimizeSpeed"  x="102" y="132" width="6" height="6" fill="black" />
<rect shape-rendering="optimizeSpeed"  x="108" y="132" width="6" height="6" fill="black" />
<rect shape-rendering="optimizeSpeed"  x="114" y="132" width="6" height="6" fill="black" />
<rect shape-rendering="optimizeSpeed"  x="120" y="132" width="6" height="6" fill="black" />
<rect shape-rendering="optimizeSpeed"  x="132" y="132" width="6" height="6" fill="black" />
<rect shape-rendering="optimizeSpeed"  x="144" y="132" width="6" height="6" fill="black" />
<rect shape-rendering="optimizeSpeed"  x="156" y="132" width="6" height="6" fill="black" />
<rect shape-rendering="optimizeSpeed"  x="162" y="132" width="6" height="6" fill="black" />
<rect shape-rendering="optimizeSpeed"  x="0" y="138" width="6" height="6" fill="black" />
<rect shape-rendering="optimizeSpeed"  x="36" y="138" width="6" height="6" fill="black" />
<rect shape-rendering="optimizeSpeed"  x="66" y="138" width="6" height="6" fill="black" />
<rect shape-rendering="optimizeSpeed"  x="90" y="138" width="6" height="6" fill="black" />
<rect shape-rendering="optimizeSpeed"  x="96" y="138" width="6" height="6" fill="black" />
<rect shape-rendering="optimizeSpeed"  x="108" y="138" width="6" height="6" fill="black" />
<rect shape-rendering="optimizeSpeed"  x="114" y="138" width="6" height="6" fill="black" />
<rect shape-rendering="optimizeSpeed"  x="120" y="138" width="6" height="6" fill="black" />
<rect shape-rendering="optimizeSpeed"  x="144" y="138" width="6" height="6" fill="black" />
<rect shape-rendering="optimizeSpeed"  x="162" y="138" width="6" height="6" fill="black" />
<rect shape-rendering="optimizeSpeed"  x="168" y="138" width="6" height="6" fill="black" />
<rect shape-rendering="optimizeSpeed"  x="0" y="144" width="6" height="6" fill="black" />
<rect shape-rendering="optimizeSpeed"  x="12" y="144" width="6" height="6" fill="black" />
<rect shape-rendering="optimizeSpeed"  x="18" y="144" width="6" height="6" fill="black" />
<rect shape-rendering="optimizeSpeed"  x="24" y="144" width="6" height="6" fill="black" />
<rect shape-rendering="optimizeSpeed"  x="36" y="144" width="6" height="6" fill="black" />
<rect shape-rendering="optimizeSpeed"  x="48" y="144" width="6" height="6" fill="black" />
<rect shape-rendering="optimizeSpeed"  x="60" y="144" width="6" height="6" fill="black" />
<rect shape-rendering="optimizeSpeed"  x="66" y="144" width="6" height="6" fill="black" />
<rect shape-rendering="optimizeSpeed"  x="90" y="144" width="6" height="6" fill="black" />
<rect shape-rendering="optimizeSpeed"  x="102" y="144" width="6" height="6" fill="black" />
<rect shape-rendering="optimizeSpeed"  x="108" y="144" width="6" height="6" fill="black" />
<rect shape-rendering="optimizeSpeed"  x="120" y="144" width="6" height="6" fill="black" />
<rect shape-rendering="optimizeSpeed"  x="126" y="144" width="6" height="6" fill="black" />
<rect shape-rendering="optimizeSpeed"  x="132" y="144" width="6" height="6" fill="black" />
<rect shape-rendering="optimizeSpeed"  x="138" y="144" width="6" height="6" fill="black" />
<rect shape-rendering="optimizeSpeed"  x="144" y="144" width="6" height="6" fill="black" />
<rect shape-rendering="optimizeSpeed"  x="150" y="144" width="6" height="6" fill="black" />
<rect shape-rendering="optimizeSpeed"  x="156" y="144" width="6" height="6" fill="black" />
<rect shape-rendering="optimizeSpeed"  x="162" y="144" width="6" height="6" fill="black" />
<rect shape-rendering="optimizeSpeed"  x="168" y="144" width="6" height="6" fill="black" />
<rect shape-rendering="optimizeSpeed"  x="0" y="150" width="6" height="6" fill="black" />
<rect shape-rendering="optimizeSpeed"  x="12" y="150" width="6" height="6" fill="black" />
<rect shape-rendering="optimizeSpeed"  x="18" y="150" width="6" height="6" fill="black" />
<rect shape-rendering="optimizeSpeed"  x="24" y="150" width="6" height="6" fill="black" />
<rect shape-rendering="optimizeSpeed"  x="36" y="150" width="6" height="6" fill="black" />
<rect shape-rendering="optimizeSpeed"  x="48" y="150" width="6" height="6" fill="black" />
<rect shape-rendering="optimizeSpeed"  x="54" y="150" width="6" height="6" fill="black" />
<rect shape-rendering="optimizeSpeed"  x="60" y="150" width="6" height="6" fill="black" />
<rect shape-rendering="optimizeSpeed"  x="72" y="150" width="6" height="6" fill="black" />
<rect shape-rendering="optimizeSpeed"  x="78" y="150" width="6" height="6" fill="black" />
<rect shape-rendering="optimizeSpeed"  x="96" y="150" width="6" height="6" fill="black" />
<rect shape-rendering="optimizeSpeed"  x="114" y="150" width="6" height="6" fill="black" />
<rect shape-rendering="optimizeSpeed"  x="120" y="150" width="6" height="6" fill="black" />
<rect shape-rendering="optimizeSpeed"  x="138" y="150" width="6" height="6" fill="black" />
<rect shape-rendering="optimizeSpeed"  x="162" y="150" width="6" height="6" fill="black" />
<rect shape-rendering="optimizeSpeed"  x="168" y="150" width="6" height="6" fill="black" />
<rect shape-rendering="optimizeSpeed"  x="0" y="156" width="6" height="6" fill="black" />
<rect shape-rendering="optimizeSpeed"  x="12" y="156" width="6" height="6" fill="black" />
<rect shape-rendering="optimizeSpeed"  x="18" y="156" width="6" height="6" fill="black" />
<rect shape-rendering="optimizeSpeed"  x="24" y="156" width="6" height="6" fill="black" />
<rect shape-rendering="optimizeSpeed"  x="36" y="156" width="6" height="6" fill="black" />
<rect shape-rendering="optimizeSpeed"  x="48" y="156" width="6" height="6" fill="black" />
<rect shape-rendering="optimizeSpeed"  x="60" y="156" width="6" height="6" fill="black" />
<rect shape-rendering="optimizeSpeed"  x="78" y="156" width="6" height="6" fill="black" />
<rect shape-rendering="optimizeSpeed"  x="84" y="156" width="6" height="6" fill="black" />
<rect shape-rendering="optimizeSpeed"  x="90" y="156" width="6" height="6" fill="black" />
<rect shape-rendering="optimizeSpeed"  x="96" y="156" width="6" height="6" fill="black" />
<rect shape-rendering="optimizeSpeed"  x="126" y="156" width="6" height="6" fill="black" />
<rect shape-rendering="optimizeSpeed"  x="144" y="156" width="6" height="6" fill="black" />
<rect shape-rendering="optimizeSpeed"  x="150" y="156" width="6" height="6" fill="black" />
<rect shape-rendering="optimizeSpeed"  x="162" y="156" width="6" height="6" fill="black" />
<rect shape-rendering="optimizeSpeed"  x="0" y="162" width="6" height="6" fill="black" />
<rect shape-rendering="optimizeSpeed"  x="36" y="162" width="6" height="6" fill="black" />
<rect shape-rendering="optimizeSpeed"  x="48" y="162" width="6" height="6" fill="black" />
<rect shape-rendering="optimizeSpeed"  x="54" y="162" width="6" height="6" fill="black" />
<rect shape-rendering="optimizeSpeed"  x="60" y="162" width="6" height="6" fill="black" />
<rect shape-rendering="optimizeSpeed"  x="72" y="162" width="6" height="6" fill="black" />
<rect shape-rendering="optimizeSpeed"  x="78" y="162" width="6" height="6" fill="black" />
<rect shape-rendering="optimizeSpeed"  x="90" y="162" width="6" height="6" fill="black" />
<rect shape-rendering="optimizeSpeed"  x="96" y="162" width="6" height="6" fill="black" />
<rect shape-rendering="optimizeSpeed"  x="108" y="162" width="6" height="6" fill="black" />
<rect shape-rendering="optimizeSpeed"  x="114" y="162" width="6" height="6" fill="black" />
<rect shape-rendering="optimizeSpeed"  x="120" y="162" width="6" height="6" fill="black" />
<rect shape-rendering="optimizeSpeed"  x="126" y="162" width="6" height="6" fill="black" />
<rect shape-rendering="optimizeSpeed"  x="138" y="162" width="6" height="6" fill="black" />
<rect shape-rendering="optimizeSpeed"  x="162" y="162" width="6" height="6" fill="black" />
<rect shape-rendering="optimizeSpeed"  x="0" y="168" width="6" height="6" fill="black" />
<rect shape-rendering="optimizeSpeed"  x="6" y="168" width="6" height="6" fill="black" />
<rect shape-rendering="optimizeSpeed"  x="12" y="168" width="6" height="6" fill="black" />
<rect shape-rendering="optimizeSpeed"  x="18" y="168" width="6" height="6" fill="black" />
<rect shape-rendering="optimizeSpeed"  x="24" y="168" width="6" height="6" fill="black" />
<rect shape-rendering="optimizeSpeed"  x="30" y="168" width="6" height="6" fill="black" />
<rect shape-rendering="optimizeSpeed"  x="36" y="168" width="6" height="6" fill="black" />
<rect shape-rendering="optimizeSpeed"  x="48" y="168" width="6" height="6" fill="black" />
<rect shape-rendering="optimizeSpeed"  x="54" y="168" width="6" height="6" fill="black" />
<rect shape-rendering="optimizeSpeed"  x="72" y="168" width="6" height="6" fill="black" />
<rect shape-rendering="optimizeSpeed"  x="84" y="168" width="6" height="6" fill="black" />
<rect shape-rendering="optimizeSpeed"  x="90" y="168" width="6" height="6" fill="black" />
<rect shape-rendering="optimizeSpeed"  x="96" y="168" width="6" height="6" fill="black" />
<rect shape-rendering="optimizeSpeed"  x="102" y="168" width="6" height="6" fill="black" />
<rect shape-rendering="optimizeSpeed"  x="108" y="168" width="6" height="6" fill="black" />
<rect shape-rendering="optimizeSpeed"  x="132" y="168" width="6" height="6" fill="black" />
<rect shape-rendering="optimizeSpeed"  x="138" y="168" width="6" height="6" fill="black" />
<rect shape-rendering="optimizeSpeed"  x="144" y="168" width="6" height="6" fill="black" />
<rect shape-rendering="optimizeSpeed"  x="150" y="168" width="6" height="6" fill="black" />
<rect shape-rendering="optimizeSpeed"  x="156" y="168" width="6" height="6" fill="black" /></svg>